<mxfile host="app.diagrams.net" modified="2024-03-25T00:59:13.865Z" agent="Mozilla/5.0 (X11; Linux x86_64) AppleWebKit/537.36 (KHTML, like Gecko) Chrome/122.0.0.0 Safari/537.36 Edg/122.0.2365.86" etag="pQ916IZLSThpRFQz9Zlp" version="24.1.0" type="github">
  <diagram name="Page-1" id="0783ab3e-0a74-02c8-0abd-f7b4e66b4bec">
    <mxGraphModel dx="549" dy="714" grid="1" gridSize="10" guides="1" tooltips="1" connect="1" arrows="1" fold="1" page="1" pageScale="1" pageWidth="850" pageHeight="1100" background="none" math="0" shadow="0">
      <root>
        <mxCell id="0" />
        <mxCell id="1" parent="0" />
        <mxCell id="xaB9GiJI3lMty1Uy9sra-12" value="用户" style="shape=umlActor;verticalLabelPosition=bottom;verticalAlign=top;html=1;outlineConnect=0;" parent="1" vertex="1">
          <mxGeometry x="80" y="363" width="30" height="60" as="geometry" />
        </mxCell>
        <mxCell id="xaB9GiJI3lMty1Uy9sra-19" value="" style="endArrow=classic;html=1;rounded=0;entryX=0;entryY=0.5;entryDx=0;entryDy=0;exitX=0.5;exitY=0.5;exitDx=0;exitDy=0;exitPerimeter=0;" parent="1" source="xaB9GiJI3lMty1Uy9sra-12" target="xaB9GiJI3lMty1Uy9sra-36" edge="1">
          <mxGeometry width="50" height="50" relative="1" as="geometry">
            <mxPoint x="300" y="423" as="sourcePoint" />
            <mxPoint x="239.99999999999818" y="343" as="targetPoint" />
          </mxGeometry>
        </mxCell>
        <mxCell id="xaB9GiJI3lMty1Uy9sra-25" value="" style="endArrow=classic;html=1;rounded=0;entryX=0;entryY=0.5;entryDx=0;entryDy=0;" parent="1" target="xaB9GiJI3lMty1Uy9sra-39" edge="1">
          <mxGeometry width="50" height="50" relative="1" as="geometry">
            <mxPoint x="100" y="393" as="sourcePoint" />
            <mxPoint x="409.9999999999984" y="343" as="targetPoint" />
          </mxGeometry>
        </mxCell>
        <mxCell id="xaB9GiJI3lMty1Uy9sra-32" value="" style="endArrow=classic;html=1;rounded=0;entryX=0;entryY=0.5;entryDx=0;entryDy=0;" parent="1" target="xaB9GiJI3lMty1Uy9sra-42" edge="1">
          <mxGeometry width="50" height="50" relative="1" as="geometry">
            <mxPoint x="100" y="393" as="sourcePoint" />
            <mxPoint x="595" y="343" as="targetPoint" />
          </mxGeometry>
        </mxCell>
        <mxCell id="xaB9GiJI3lMty1Uy9sra-36" value="购买家具" style="ellipse;whiteSpace=wrap;html=1;" parent="1" vertex="1">
          <mxGeometry x="390" y="170" width="105" height="50" as="geometry" />
        </mxCell>
        <mxCell id="xaB9GiJI3lMty1Uy9sra-39" value="身份绑定认证" style="ellipse;whiteSpace=wrap;html=1;" parent="1" vertex="1">
          <mxGeometry x="403" y="260" width="105" height="50" as="geometry" />
        </mxCell>
        <mxCell id="xaB9GiJI3lMty1Uy9sra-42" value="初始化默认偏好习惯" style="ellipse;whiteSpace=wrap;html=1;" parent="1" vertex="1">
          <mxGeometry x="396.25" y="340" width="140" height="50" as="geometry" />
        </mxCell>
        <mxCell id="xaB9GiJI3lMty1Uy9sra-44" value="查询家具状态信息" style="ellipse;whiteSpace=wrap;html=1;" parent="1" vertex="1">
          <mxGeometry x="390" y="703" width="132.5" height="60" as="geometry" />
        </mxCell>
        <mxCell id="xaB9GiJI3lMty1Uy9sra-45" value="调整家具状态参数" style="ellipse;whiteSpace=wrap;html=1;" parent="1" vertex="1">
          <mxGeometry x="389.25" y="870" width="132.5" height="60" as="geometry" />
        </mxCell>
        <mxCell id="xaB9GiJI3lMty1Uy9sra-53" value="" style="endArrow=open;endFill=1;endSize=12;html=1;rounded=0;entryX=0;entryY=0.5;entryDx=0;entryDy=0;exitX=0.5;exitY=0.5;exitDx=0;exitDy=0;exitPerimeter=0;" parent="1" source="xaB9GiJI3lMty1Uy9sra-12" target="xaB9GiJI3lMty1Uy9sra-45" edge="1">
          <mxGeometry width="160" relative="1" as="geometry">
            <mxPoint x="460" y="503" as="sourcePoint" />
            <mxPoint x="620" y="503" as="targetPoint" />
          </mxGeometry>
        </mxCell>
        <mxCell id="1TjIiwKGUceRQS6xYd8T-2" value="" style="endArrow=open;endFill=1;endSize=12;html=1;rounded=0;entryX=0;entryY=0.5;entryDx=0;entryDy=0;exitX=0.5;exitY=0.5;exitDx=0;exitDy=0;exitPerimeter=0;" parent="1" source="xaB9GiJI3lMty1Uy9sra-12" target="xaB9GiJI3lMty1Uy9sra-44" edge="1">
          <mxGeometry width="160" relative="1" as="geometry">
            <mxPoint x="410" y="493" as="sourcePoint" />
            <mxPoint x="570" y="493" as="targetPoint" />
          </mxGeometry>
        </mxCell>
        <mxCell id="1TjIiwKGUceRQS6xYd8T-3" value="后台管理员" style="shape=umlActor;verticalLabelPosition=bottom;verticalAlign=top;html=1;" parent="1" vertex="1">
          <mxGeometry x="80" y="643" width="30" height="60" as="geometry" />
        </mxCell>
        <mxCell id="1TjIiwKGUceRQS6xYd8T-5" value="" style="endArrow=open;endFill=1;endSize=12;html=1;rounded=0;exitX=0.5;exitY=0.5;exitDx=0;exitDy=0;exitPerimeter=0;entryX=0;entryY=0.5;entryDx=0;entryDy=0;" parent="1" source="1TjIiwKGUceRQS6xYd8T-3" target="xaB9GiJI3lMty1Uy9sra-44" edge="1">
          <mxGeometry width="160" relative="1" as="geometry">
            <mxPoint x="780" y="433" as="sourcePoint" />
            <mxPoint x="380" y="583" as="targetPoint" />
          </mxGeometry>
        </mxCell>
        <mxCell id="1TjIiwKGUceRQS6xYd8T-6" value="" style="endArrow=open;endFill=1;endSize=12;html=1;rounded=0;exitX=0.5;exitY=0.5;exitDx=0;exitDy=0;exitPerimeter=0;entryX=0;entryY=0.5;entryDx=0;entryDy=0;" parent="1" source="1TjIiwKGUceRQS6xYd8T-3" target="xaB9GiJI3lMty1Uy9sra-45" edge="1">
          <mxGeometry width="160" relative="1" as="geometry">
            <mxPoint x="410" y="493" as="sourcePoint" />
            <mxPoint x="350" y="843" as="targetPoint" />
          </mxGeometry>
        </mxCell>
        <mxCell id="1TjIiwKGUceRQS6xYd8T-8" value="分析用户家具使用数据" style="ellipse;whiteSpace=wrap;html=1;" parent="1" vertex="1">
          <mxGeometry x="375.5" y="433" width="132.5" height="60" as="geometry" />
        </mxCell>
        <mxCell id="1TjIiwKGUceRQS6xYd8T-9" value="" style="endArrow=open;endFill=1;endSize=12;html=1;rounded=0;exitX=0.5;exitY=0.5;exitDx=0;exitDy=0;exitPerimeter=0;entryX=0;entryY=0.5;entryDx=0;entryDy=0;" parent="1" source="1TjIiwKGUceRQS6xYd8T-3" target="1TjIiwKGUceRQS6xYd8T-8" edge="1">
          <mxGeometry width="160" relative="1" as="geometry">
            <mxPoint x="720" y="453" as="sourcePoint" />
            <mxPoint x="560" y="453" as="targetPoint" />
          </mxGeometry>
        </mxCell>
        <mxCell id="1TjIiwKGUceRQS6xYd8T-10" value="给用户发送学习模式请求" style="ellipse;whiteSpace=wrap;html=1;" parent="1" vertex="1">
          <mxGeometry x="437.5" y="610" width="152.5" height="60" as="geometry" />
        </mxCell>
        <mxCell id="1TjIiwKGUceRQS6xYd8T-11" value="" style="endArrow=open;endFill=1;endSize=12;html=1;rounded=0;entryX=0;entryY=0.5;entryDx=0;entryDy=0;exitX=0.667;exitY=0.783;exitDx=0;exitDy=0;exitPerimeter=0;" parent="1" source="1TjIiwKGUceRQS6xYd8T-3" target="1TjIiwKGUceRQS6xYd8T-10" edge="1">
          <mxGeometry width="160" relative="1" as="geometry">
            <mxPoint x="100" y="660" as="sourcePoint" />
            <mxPoint x="570" y="573" as="targetPoint" />
          </mxGeometry>
        </mxCell>
        <mxCell id="1TjIiwKGUceRQS6xYd8T-12" value="给用户发送家具维修提醒" style="ellipse;whiteSpace=wrap;html=1;" parent="1" vertex="1">
          <mxGeometry x="403" y="520" width="152.5" height="60" as="geometry" />
        </mxCell>
        <mxCell id="1TjIiwKGUceRQS6xYd8T-13" value="" style="endArrow=open;endFill=1;endSize=12;html=1;rounded=0;entryX=0;entryY=0.5;entryDx=0;entryDy=0;exitX=0.5;exitY=0.283;exitDx=0;exitDy=0;exitPerimeter=0;" parent="1" source="1TjIiwKGUceRQS6xYd8T-3" target="1TjIiwKGUceRQS6xYd8T-12" edge="1">
          <mxGeometry width="160" relative="1" as="geometry">
            <mxPoint x="95" y="680" as="sourcePoint" />
            <mxPoint x="570" y="573" as="targetPoint" />
          </mxGeometry>
        </mxCell>
        <mxCell id="1TjIiwKGUceRQS6xYd8T-14" value="家具安装传感器" style="ellipse;whiteSpace=wrap;html=1;" parent="1" vertex="1">
          <mxGeometry x="632.5" y="630" width="110" height="50" as="geometry" />
        </mxCell>
        <mxCell id="1TjIiwKGUceRQS6xYd8T-15" value="家具接入WIFI" style="ellipse;whiteSpace=wrap;html=1;" parent="1" vertex="1">
          <mxGeometry x="621.25" y="708" width="110" height="50" as="geometry" />
        </mxCell>
        <mxCell id="1TjIiwKGUceRQS6xYd8T-16" value="服务器安装家具传感器操控应用程序" style="ellipse;whiteSpace=wrap;html=1;" parent="1" vertex="1">
          <mxGeometry x="606.25" y="780" width="140" height="70" as="geometry" />
        </mxCell>
        <mxCell id="1TjIiwKGUceRQS6xYd8T-22" value="&amp;lt;&amp;lt;include&amp;gt;&amp;gt;" style="endArrow=open;endSize=12;dashed=1;html=1;rounded=0;entryX=0;entryY=0.5;entryDx=0;entryDy=0;exitX=1;exitY=0.5;exitDx=0;exitDy=0;" parent="1" source="xaB9GiJI3lMty1Uy9sra-44" target="1TjIiwKGUceRQS6xYd8T-14" edge="1">
          <mxGeometry x="-0.0075" width="160" relative="1" as="geometry">
            <mxPoint x="390" y="693" as="sourcePoint" />
            <mxPoint x="550" y="693" as="targetPoint" />
            <mxPoint as="offset" />
          </mxGeometry>
        </mxCell>
        <mxCell id="1TjIiwKGUceRQS6xYd8T-23" value="&amp;lt;&amp;lt;include&amp;gt;&amp;gt;" style="endArrow=open;endSize=12;dashed=1;html=1;rounded=0;entryX=0;entryY=0.5;entryDx=0;entryDy=0;exitX=1;exitY=0.5;exitDx=0;exitDy=0;" parent="1" source="xaB9GiJI3lMty1Uy9sra-44" target="1TjIiwKGUceRQS6xYd8T-15" edge="1">
          <mxGeometry width="160" relative="1" as="geometry">
            <mxPoint x="518" y="593" as="sourcePoint" />
            <mxPoint x="640" y="578" as="targetPoint" />
          </mxGeometry>
        </mxCell>
        <mxCell id="1TjIiwKGUceRQS6xYd8T-24" value="&amp;lt;&amp;lt;include&amp;gt;&amp;gt;" style="endArrow=open;endSize=12;dashed=1;html=1;rounded=0;entryX=0;entryY=0.5;entryDx=0;entryDy=0;exitX=1;exitY=0.5;exitDx=0;exitDy=0;" parent="1" source="xaB9GiJI3lMty1Uy9sra-44" target="1TjIiwKGUceRQS6xYd8T-16" edge="1">
          <mxGeometry width="160" relative="1" as="geometry">
            <mxPoint x="528" y="603" as="sourcePoint" />
            <mxPoint x="650" y="588" as="targetPoint" />
          </mxGeometry>
        </mxCell>
      </root>
    </mxGraphModel>
  </diagram>
</mxfile>
